<svg id="visual" viewBox="0 0 960 540" width="960" height="540" xmlns="http://www.w3.org/2000/svg" xmlns:xlink="http://www.w3.org/1999/xlink" version="1.1"><path d="M0 252L22.8 246.5C45.7 241 91.3 230 137 240.8C182.7 251.7 228.3 284.3 274 286.8C319.7 289.3 365.3 261.7 411.2 241.7C457 221.7 503 209.3 548.8 204.8C594.7 200.3 640.3 203.7 686 221C731.7 238.3 777.3 269.7 823 279.3C868.7 289 914.3 277 937.2 271L960 265L960 541L937.2 541C914.3 541 868.7 541 823 541C777.3 541 731.7 541 686 541C640.3 541 594.7 541 548.8 541C503 541 457 541 411.2 541C365.3 541 319.7 541 274 541C228.3 541 182.7 541 137 541C91.3 541 45.7 541 22.8 541L0 541Z" fill="#f0b789" stroke-linecap="round" stroke-linejoin="miter"></path></svg>