<svg id="visual" viewBox="0 0 1920 1080" width="1920" height="1080" xmlns="http://www.w3.org/2000/svg" xmlns:xlink="http://www.w3.org/1999/xlink" version="1.1"><path d="M0 632L35.5 639C71 646 142 660 213.2 691.3C284.3 722.7 355.7 771.3 426.8 795.2C498 819 569 818 640 813.3C711 808.7 782 800.3 853.2 764.2C924.3 728 995.7 664 1066.8 634.5C1138 605 1209 610 1280 644.2C1351 678.3 1422 741.7 1493.2 771.5C1564.3 801.3 1635.7 797.7 1706.8 766.2C1778 734.7 1849 675.3 1884.5 645.7L1920 616L1920 1081L1884.5 1081C1849 1081 1778 1081 1706.8 1081C1635.7 1081 1564.3 1081 1493.2 1081C1422 1081 1351 1081 1280 1081C1209 1081 1138 1081 1066.8 1081C995.7 1081 924.3 1081 853.2 1081C782 1081 711 1081 640 1081C569 1081 498 1081 426.8 1081C355.7 1081 284.3 1081 213.2 1081C142 1081 71 1081 35.5 1081L0 1081Z" fill="#e5cdae" stroke-linecap="round" stroke-linejoin="miter"></path></svg>